<mxfile host="app.diagrams.net" modified="2024-03-04T13:12:48.938Z" agent="Mozilla/5.0 (Windows NT 10.0; Win64; x64) AppleWebKit/537.36 (KHTML, like Gecko) Chrome/122.0.0.0 Safari/537.36" etag="C5arHkPOxWVwCZcOPls2" version="24.0.1" type="github">
  <diagram name="Страница — 1" id="sO5Hfu04q_IPDvUDmRCp">
    <mxGraphModel dx="574" dy="348" grid="1" gridSize="10" guides="1" tooltips="1" connect="1" arrows="1" fold="1" page="1" pageScale="1" pageWidth="827" pageHeight="1169" math="0" shadow="0">
      <root>
        <mxCell id="0" />
        <mxCell id="1" parent="0" />
        <mxCell id="oVD-AEJCte70YSTXyg2e-20" value="Инжектор" style="rounded=0;whiteSpace=wrap;html=1;" vertex="1" parent="1">
          <mxGeometry x="240" y="205" width="60" height="40" as="geometry" />
        </mxCell>
        <mxCell id="oVD-AEJCte70YSTXyg2e-39" value="" style="edgeStyle=orthogonalEdgeStyle;rounded=0;orthogonalLoop=1;jettySize=auto;html=1;" edge="1" parent="1" source="oVD-AEJCte70YSTXyg2e-21" target="oVD-AEJCte70YSTXyg2e-29">
          <mxGeometry relative="1" as="geometry" />
        </mxCell>
        <mxCell id="oVD-AEJCte70YSTXyg2e-21" value="Токамак" style="rounded=0;whiteSpace=wrap;html=1;" vertex="1" parent="1">
          <mxGeometry x="145" y="285" width="80" height="20" as="geometry" />
        </mxCell>
        <mxCell id="oVD-AEJCte70YSTXyg2e-29" value="&lt;div&gt;&lt;br&gt;&lt;/div&gt;&lt;div&gt;&lt;br&gt;&lt;/div&gt;&lt;div&gt;&lt;br&gt;&lt;/div&gt;&lt;div&gt;&lt;span style=&quot;background-color: initial;&quot;&gt;Плазма&lt;/span&gt;&lt;br&gt;&lt;/div&gt;" style="ellipse;whiteSpace=wrap;html=1;aspect=fixed;fillColor=#dae8fc;strokeColor=#6c8ebf;gradientColor=#7ea6e0;gradientDirection=radial;" vertex="1" parent="1">
          <mxGeometry x="140" y="180" width="90" height="90" as="geometry" />
        </mxCell>
        <mxCell id="oVD-AEJCte70YSTXyg2e-32" value="" style="shape=flexArrow;endArrow=classic;html=1;rounded=0;exitX=0;exitY=0.5;exitDx=0;exitDy=0;fillColor=#f8cecc;width=3.6;endSize=2.668;endWidth=7.76;gradientColor=#ea6b66;strokeColor=#b85450;gradientDirection=west;" edge="1" parent="1" source="oVD-AEJCte70YSTXyg2e-20">
          <mxGeometry width="50" height="50" relative="1" as="geometry">
            <mxPoint x="200" y="130" as="sourcePoint" />
            <mxPoint x="110" y="225" as="targetPoint" />
          </mxGeometry>
        </mxCell>
        <mxCell id="oVD-AEJCte70YSTXyg2e-33" value="Пучок" style="edgeLabel;html=1;align=center;verticalAlign=middle;resizable=0;points=[];labelBorderColor=default;" vertex="1" connectable="0" parent="oVD-AEJCte70YSTXyg2e-32">
          <mxGeometry x="-0.3423" y="1" relative="1" as="geometry">
            <mxPoint x="-12" y="-1" as="offset" />
          </mxGeometry>
        </mxCell>
        <mxCell id="oVD-AEJCte70YSTXyg2e-44" value="" style="edgeStyle=orthogonalEdgeStyle;rounded=0;orthogonalLoop=1;jettySize=auto;html=1;" edge="1" parent="1" source="oVD-AEJCte70YSTXyg2e-42" target="oVD-AEJCte70YSTXyg2e-43">
          <mxGeometry relative="1" as="geometry" />
        </mxCell>
        <mxCell id="oVD-AEJCte70YSTXyg2e-45" value="Излучение" style="edgeLabel;html=1;align=center;verticalAlign=middle;resizable=0;points=[];labelBorderColor=default;" vertex="1" connectable="0" parent="oVD-AEJCte70YSTXyg2e-44">
          <mxGeometry x="-0.4049" relative="1" as="geometry">
            <mxPoint y="-17" as="offset" />
          </mxGeometry>
        </mxCell>
        <mxCell id="oVD-AEJCte70YSTXyg2e-42" value="" style="shape=curlyBracket;whiteSpace=wrap;html=1;rounded=1;flipH=1;labelPosition=right;verticalLabelPosition=middle;align=left;verticalAlign=middle;rotation=-90;size=0.5;" vertex="1" parent="1">
          <mxGeometry x="175" y="165" width="20" height="90" as="geometry" />
        </mxCell>
        <mxCell id="oVD-AEJCte70YSTXyg2e-47" value="" style="edgeStyle=orthogonalEdgeStyle;rounded=0;orthogonalLoop=1;jettySize=auto;html=1;" edge="1" parent="1" source="oVD-AEJCte70YSTXyg2e-43" target="oVD-AEJCte70YSTXyg2e-46">
          <mxGeometry relative="1" as="geometry" />
        </mxCell>
        <mxCell id="oVD-AEJCte70YSTXyg2e-43" value="Зеркало" style="rounded=0;whiteSpace=wrap;html=1;" vertex="1" parent="1">
          <mxGeometry x="160" y="120" width="50" height="30" as="geometry" />
        </mxCell>
        <mxCell id="oVD-AEJCte70YSTXyg2e-49" value="" style="edgeStyle=orthogonalEdgeStyle;rounded=0;orthogonalLoop=1;jettySize=auto;html=1;" edge="1" parent="1" source="oVD-AEJCte70YSTXyg2e-46" target="oVD-AEJCte70YSTXyg2e-48">
          <mxGeometry relative="1" as="geometry" />
        </mxCell>
        <mxCell id="oVD-AEJCte70YSTXyg2e-46" value="Объектив" style="rounded=0;whiteSpace=wrap;html=1;" vertex="1" parent="1">
          <mxGeometry x="230" y="120" width="60" height="30" as="geometry" />
        </mxCell>
        <mxCell id="oVD-AEJCte70YSTXyg2e-48" value="Входные торцы световодов" style="rounded=0;whiteSpace=wrap;html=1;" vertex="1" parent="1">
          <mxGeometry x="310" y="110" width="80" height="50" as="geometry" />
        </mxCell>
        <mxCell id="oVD-AEJCte70YSTXyg2e-52" value="Биозащита" style="verticalLabelPosition=bottom;verticalAlign=top;html=1;shape=mxgraph.basic.patternFillRect;fillStyle=diag;step=5;fillStrokeWidth=0.2;fillStrokeColor=#dddddd;" vertex="1" parent="1">
          <mxGeometry x="404" y="65" width="20" height="125" as="geometry" />
        </mxCell>
        <mxCell id="oVD-AEJCte70YSTXyg2e-54" value="" style="curved=1;endArrow=classic;html=1;rounded=0;exitX=1;exitY=0.5;exitDx=0;exitDy=0;entryX=0;entryY=0.5;entryDx=0;entryDy=0;" edge="1" parent="1" source="oVD-AEJCte70YSTXyg2e-48" target="oVD-AEJCte70YSTXyg2e-55">
          <mxGeometry width="50" height="50" relative="1" as="geometry">
            <mxPoint x="440" y="140" as="sourcePoint" />
            <mxPoint x="490" y="90" as="targetPoint" />
            <Array as="points">
              <mxPoint x="410" y="140" />
              <mxPoint x="420" y="135" />
              <mxPoint x="430" y="130" />
              <mxPoint x="440" y="130" />
            </Array>
          </mxGeometry>
        </mxCell>
        <mxCell id="oVD-AEJCte70YSTXyg2e-57" value="" style="edgeStyle=orthogonalEdgeStyle;rounded=0;orthogonalLoop=1;jettySize=auto;html=1;" edge="1" parent="1" source="oVD-AEJCte70YSTXyg2e-55" target="oVD-AEJCte70YSTXyg2e-56">
          <mxGeometry relative="1" as="geometry" />
        </mxCell>
        <mxCell id="oVD-AEJCte70YSTXyg2e-55" value="Выходные торцы световодов" style="rounded=0;whiteSpace=wrap;html=1;" vertex="1" parent="1">
          <mxGeometry x="460" y="107.5" width="80" height="55" as="geometry" />
        </mxCell>
        <mxCell id="oVD-AEJCte70YSTXyg2e-59" value="" style="edgeStyle=orthogonalEdgeStyle;rounded=0;orthogonalLoop=1;jettySize=auto;html=1;" edge="1" parent="1" source="oVD-AEJCte70YSTXyg2e-56" target="oVD-AEJCte70YSTXyg2e-58">
          <mxGeometry relative="1" as="geometry" />
        </mxCell>
        <mxCell id="oVD-AEJCte70YSTXyg2e-56" value="Спектрометр" style="rounded=0;whiteSpace=wrap;html=1;" vertex="1" parent="1">
          <mxGeometry x="570" y="116.25" width="90" height="37.5" as="geometry" />
        </mxCell>
        <mxCell id="oVD-AEJCte70YSTXyg2e-58" value="CCD-камера" style="rounded=0;whiteSpace=wrap;html=1;" vertex="1" parent="1">
          <mxGeometry x="680" y="120" width="80" height="30" as="geometry" />
        </mxCell>
      </root>
    </mxGraphModel>
  </diagram>
</mxfile>
